# Blender 5.1.1
# www.blender.org
mtllib hero-figurine-collider.mtl
o Collider
v 0.000000 0.001747 -0.426242
v 0.000000 1.779253 -0.426242
v 0.083156 0.001747 -0.418051
v 0.083156 1.779253 -0.418051
v 0.163116 0.001747 -0.393796
v 0.163116 1.779253 -0.393796
v 0.236807 0.001747 -0.354407
v 0.236807 1.779253 -0.354407
v 0.301398 0.001747 -0.301398
v 0.301398 1.779253 -0.301398
v 0.354407 0.001747 -0.236807
v 0.354407 1.779253 -0.236807
v 0.393796 0.001747 -0.163116
v 0.393796 1.779253 -0.163116
v 0.418051 0.001747 -0.083156
v 0.418051 1.779253 -0.083156
v 0.426242 0.001747 0.000000
v 0.426242 1.779253 0.000000
v 0.418051 0.001747 0.083156
v 0.418051 1.779253 0.083156
v 0.393796 0.001747 0.163116
v 0.393796 1.779253 0.163116
v 0.354407 0.001747 0.236807
v 0.354407 1.779253 0.236807
v 0.301398 0.001747 0.301398
v 0.301398 1.779253 0.301398
v 0.236807 0.001747 0.354407
v 0.236807 1.779253 0.354407
v 0.163116 0.001747 0.393796
v 0.163116 1.779253 0.393796
v 0.083156 0.001747 0.418051
v 0.083156 1.779253 0.418051
v 0.000000 0.001747 0.426242
v 0.000000 1.779253 0.426242
v -0.083156 0.001747 0.418051
v -0.083156 1.779253 0.418051
v -0.163116 0.001747 0.393796
v -0.163116 1.779253 0.393796
v -0.236807 0.001747 0.354407
v -0.236807 1.779253 0.354407
v -0.301398 0.001747 0.301398
v -0.301398 1.779253 0.301398
v -0.354407 0.001747 0.236807
v -0.354407 1.779253 0.236807
v -0.393796 0.001747 0.163116
v -0.393796 1.779253 0.163116
v -0.418051 0.001747 0.083156
v -0.418051 1.779253 0.083156
v -0.426242 0.001747 0.000000
v -0.426242 1.779253 0.000000
v -0.418051 0.001747 -0.083156
v -0.418051 1.779253 -0.083156
v -0.393796 0.001747 -0.163116
v -0.393796 1.779253 -0.163116
v -0.354407 0.001747 -0.236807
v -0.354407 1.779253 -0.236807
v -0.301398 0.001747 -0.301398
v -0.301398 1.779253 -0.301398
v -0.236807 0.001747 -0.354407
v -0.236807 1.779253 -0.354407
v -0.163116 0.001747 -0.393796
v -0.163116 1.779253 -0.393796
v -0.083156 0.001747 -0.418051
v -0.083156 1.779253 -0.418051
vn 0.9952 -0.0000 -0.0980
vn 0.4714 -0.0000 -0.8819
vn 0.6344 -0.0000 0.7730
vn 0.2903 -0.0000 -0.9569
vn 0.6344 -0.0000 -0.7730
vn 0.7730 -0.0000 0.6344
vn 0.8819 -0.0000 -0.4714
vn -0.9952 -0.0000 -0.0980
vn -0.9952 -0.0000 0.0980
vn 0.8819 -0.0000 0.4714
vn -0.0000 1.0000 -0.0000
vn 0.9569 -0.0000 0.2903
vn 0.9569 -0.0000 -0.2903
vn -0.8819 -0.0000 -0.4714
vn -0.6344 -0.0000 0.7730
vn -0.0980 -0.0000 0.9952
vn -0.4714 -0.0000 0.8819
vn -0.4714 -0.0000 -0.8819
vn -0.2903 -0.0000 0.9569
vn 0.2903 -0.0000 0.9569
vn -0.6344 -0.0000 -0.7730
vn -0.8819 -0.0000 0.4714
vn 0.0980 -0.0000 0.9952
vn 0.9952 -0.0000 0.0980
vn -0.7730 -0.0000 -0.6344
vn 0.7730 -0.0000 -0.6344
vn -0.0980 -0.0000 -0.9952
vn -0.9569 -0.0000 -0.2903
vn -0.9569 -0.0000 0.2903
vn -0.7730 -0.0000 0.6344
vn 0.4714 -0.0000 0.8819
vn 0.0980 -0.0000 -0.9952
vn -0.2903 -0.0000 -0.9569
vn -0.0000 -1.0000 -0.0000
vt 0.385969 0.594236
vt 0.384235 0.594236
vt 0.384235 0.566490
vt 0.385969 0.566490
vt 0.394639 0.594236
vt 0.392905 0.594236
vt 0.392905 0.566490
vt 0.394639 0.566490
vt 0.377298 0.594236
vt 0.375564 0.594236
vt 0.375564 0.566490
vt 0.377298 0.566490
vt 0.396374 0.594236
vt 0.396374 0.566490
vt 0.391171 0.594236
vt 0.391171 0.566490
vt 0.379032 0.594236
vt 0.379032 0.566490
vt 0.389437 0.594236
vt 0.387703 0.594236
vt 0.387703 0.566490
vt 0.389437 0.566490
vt 0.356488 0.594236
vt 0.354754 0.594236
vt 0.354754 0.566490
vt 0.356488 0.566490
vt 0.358222 0.594236
vt 0.358222 0.566490
vt 0.380766 0.594236
vt 0.380766 0.566490
vt 0.361585 0.564921
vt 0.344184 0.557714
vt 0.351392 0.540313
vt 0.368793 0.547520
vt 0.382500 0.594236
vt 0.382500 0.566490
vt 0.353020 0.594236
vt 0.351286 0.594236
vt 0.351286 0.566490
vt 0.353020 0.566490
vt 0.365159 0.594236
vt 0.363425 0.594236
vt 0.363425 0.566490
vt 0.365159 0.566490
vt 0.370361 0.594236
vt 0.368627 0.594236
vt 0.368627 0.566490
vt 0.370361 0.566490
vt 0.366893 0.594236
vt 0.366893 0.566490
vt 0.347817 0.594236
vt 0.346083 0.594236
vt 0.346083 0.566490
vt 0.347817 0.566490
vt 0.373830 0.594236
vt 0.372095 0.594236
vt 0.372095 0.566490
vt 0.373830 0.566490
vt 0.349552 0.594236
vt 0.349552 0.566490
vt 0.361691 0.594236
vt 0.359956 0.594236
vt 0.359956 0.566490
vt 0.361691 0.566490
vt 0.344349 0.594236
vt 0.342615 0.594236
vt 0.342615 0.566490
vt 0.344349 0.566490
vt 0.398108 0.594236
vt 0.398108 0.566490
vt 0.359086 0.565679
vt 0.356488 0.565935
vt 0.353890 0.565679
vt 0.351392 0.564921
vt 0.349089 0.563691
vt 0.347071 0.562034
vt 0.345414 0.560016
vt 0.343426 0.555215
vt 0.343170 0.552617
vt 0.343426 0.550019
vt 0.344184 0.547520
vt 0.345414 0.545218
vt 0.347071 0.543200
vt 0.349089 0.541543
vt 0.353890 0.539555
vt 0.356488 0.539299
vt 0.359086 0.539555
vt 0.361585 0.540313
vt 0.363887 0.541543
vt 0.365906 0.543200
vt 0.367562 0.545218
vt 0.369550 0.550019
vt 0.369806 0.552617
vt 0.369550 0.555215
vt 0.368793 0.557714
vt 0.367562 0.560016
vt 0.365906 0.562034
vt 0.363887 0.563691
vt 0.381636 0.565679
vt 0.384235 0.565935
vt 0.386833 0.565679
vt 0.389331 0.564921
vt 0.391634 0.563691
vt 0.393652 0.562034
vt 0.397297 0.555215
vt 0.395308 0.560016
vt 0.396539 0.557714
vt 0.397553 0.552617
vt 0.397297 0.550019
vt 0.396539 0.547520
vt 0.395308 0.545218
vt 0.393652 0.543200
vt 0.386833 0.539555
vt 0.391634 0.541543
vt 0.389331 0.540313
vt 0.384235 0.539299
vt 0.381636 0.539555
vt 0.379138 0.540313
vt 0.376835 0.541543
vt 0.374817 0.543200
vt 0.371172 0.550019
vt 0.373161 0.545218
vt 0.371930 0.547520
vt 0.370916 0.552617
vt 0.371172 0.555215
vt 0.371930 0.557714
vt 0.373161 0.560016
vt 0.374817 0.562034
vt 0.376835 0.563691
vt 0.379138 0.564921
s 0
usemtl material_atlas_00001_1.001
f 16/1/1 18/2/1 17/3/1 15/4/1
f 6/5/2 8/6/2 7/7/2 5/8/2
f 26/9/3 28/10/3 27/11/3 25/12/3
f 4/13/4 6/5/4 5/8/4 3/14/4
f 8/6/5 10/15/5 9/16/5 7/7/5
f 24/17/6 26/9/6 25/12/6 23/18/6
f 12/19/7 14/20/7 13/21/7 11/22/7
f 50/23/8 52/24/8 51/25/8 49/26/8
f 48/27/9 50/23/9 49/26/9 47/28/9
f 22/29/10 24/17/10 23/18/10 21/30/10
f 6/31/11 54/32/11 38/33/11 22/34/11
f 20/35/12 22/29/12 21/30/12 19/36/12
f 14/20/13 16/1/13 15/4/13 13/21/13
f 54/37/14 56/38/14 55/39/14 53/40/14
f 40/41/15 42/42/15 41/43/15 39/44/15
f 34/45/16 36/46/16 35/47/16 33/48/16
f 38/49/17 40/41/17 39/44/17 37/50/17
f 60/51/18 62/52/18 61/53/18 59/54/18
f 36/46/19 38/49/19 37/50/19 35/47/19
f 30/55/20 32/56/20 31/57/20 29/58/20
f 58/59/21 60/51/21 59/54/21 57/60/21
f 44/61/22 46/62/22 45/63/22 43/64/22
f 32/56/23 34/45/23 33/48/23 31/57/23
f 18/2/24 20/35/24 19/36/24 17/3/24
f 56/38/25 58/59/25 57/60/25 55/39/25
f 10/15/26 12/19/26 11/22/26 9/16/26
f 64/65/27 2/66/27 1/67/27 63/68/27
f 52/24/28 54/37/28 53/40/28 51/25/28
f 46/62/29 48/27/29 47/28/29 45/63/29
f 42/42/30 44/61/30 43/64/30 41/43/30
f 28/10/31 30/55/31 29/58/31 27/11/31
f 2/69/32 4/13/32 3/14/32 1/70/32
f 62/52/33 64/65/33 63/68/33 61/53/33
f 6/31/11 4/71/11 2/72/11
f 2/72/11 64/73/11 62/74/11
f 62/74/11 60/75/11 58/76/11
f 58/76/11 56/77/11 54/32/11
f 54/32/11 52/78/11 50/79/11
f 50/79/11 48/80/11 46/81/11
f 46/81/11 44/82/11 42/83/11
f 42/83/11 40/84/11 38/33/11
f 38/33/11 36/85/11 34/86/11
f 34/86/11 32/87/11 30/88/11
f 30/88/11 28/89/11 26/90/11
f 26/90/11 24/91/11 22/34/11
f 22/34/11 20/92/11 18/93/11
f 18/93/11 16/94/11 14/95/11
f 14/95/11 12/96/11 10/97/11
f 10/97/11 8/98/11 6/31/11
f 6/31/11 2/72/11 54/32/11
f 2/72/11 62/74/11 54/32/11
f 62/74/11 58/76/11 54/32/11
f 54/32/11 50/79/11 38/33/11
f 50/79/11 46/81/11 38/33/11
f 46/81/11 42/83/11 38/33/11
f 38/33/11 34/86/11 22/34/11
f 34/86/11 30/88/11 22/34/11
f 30/88/11 26/90/11 22/34/11
f 22/34/11 18/93/11 6/31/11
f 18/93/11 14/95/11 6/31/11
f 14/95/11 10/97/11 6/31/11
f 63/99/34 1/100/34 3/101/34
f 3/101/34 5/102/34 7/103/34
f 7/103/34 9/104/34 15/105/34
f 9/104/34 11/106/34 15/105/34
f 11/106/34 13/107/34 15/105/34
f 15/105/34 17/108/34 19/109/34
f 19/109/34 21/110/34 23/111/34
f 23/111/34 25/112/34 31/113/34
f 25/112/34 27/114/34 31/113/34
f 27/114/34 29/115/34 31/113/34
f 31/113/34 33/116/34 35/117/34
f 35/117/34 37/118/34 39/119/34
f 39/119/34 41/120/34 47/121/34
f 41/120/34 43/122/34 47/121/34
f 43/122/34 45/123/34 47/121/34
f 47/121/34 49/124/34 51/125/34
f 51/125/34 53/126/34 55/127/34
f 55/127/34 57/128/34 63/99/34
f 57/128/34 59/129/34 63/99/34
f 59/129/34 61/130/34 63/99/34
f 63/99/34 3/101/34 7/103/34
f 15/105/34 19/109/34 23/111/34
f 31/113/34 35/117/34 39/119/34
f 47/121/34 51/125/34 55/127/34
f 63/99/34 7/103/34 15/105/34
f 15/105/34 23/111/34 31/113/34
f 31/113/34 39/119/34 47/121/34
f 47/121/34 55/127/34 63/99/34
f 63/99/34 15/105/34 31/113/34 47/121/34
