# Blender 5.1.0
# www.blender.org
mtllib CardBox-container.mtl
o Cube
v -2.468017 0.000272 -1.439677
v -2.468017 0.000271 1.439677
v -2.468017 2.056952 -1.439677
v -2.468017 2.056952 1.439677
v 2.468017 0.000272 -1.439677
v 2.468017 0.000271 1.439677
v 2.468017 2.056952 -1.439677
v 2.468017 2.056952 1.439677
vn -1.0000 -0.0000 -0.0000
vn -0.0000 1.0000 -0.0000
vn 1.0000 -0.0000 -0.0000
vn -0.0000 -1.0000 -0.0000
vn -0.0000 -0.0000 -1.0000
vn -0.0000 -0.0000 1.0000
vt 0.046263 0.791117
vt 0.046263 0.503396
vt 0.251778 0.503396
vt 0.251778 0.791117
vt 0.748973 0.502015
vt 0.748961 0.789735
vt 0.255726 0.789714
vt 0.255738 0.501994
vt 0.750732 0.788758
vt 0.750732 0.501037
vt 0.956247 0.501037
vt 0.956247 0.788758
vt 0.256616 0.293719
vt 0.256608 0.005999
vt 0.749843 0.005986
vt 0.749851 0.293706
vt 0.750578 0.501907
vt 0.257343 0.501945
vt 0.257327 0.296431
vt 0.750562 0.296392
vt 0.255586 0.791713
vt 0.748821 0.791700
vt 0.748826 0.997214
vt 0.255592 0.997227
s 0
usemtl Box
f 1/1/1 2/2/1 4/3/1 3/4/1
f 3/5/2 4/6/2 8/7/2 7/8/2
f 7/9/3 8/10/3 6/11/3 5/12/3
f 5/13/4 6/14/4 2/15/4 1/16/4
f 3/17/5 7/18/5 5/19/5 1/20/5
f 8/21/6 4/22/6 2/23/6 6/24/6
