# Blender 5.1.1
# www.blender.org
mtllib GameBox-11x17x4.mtl
o Cube
v 1.100000 0.800000 -1.700000
v 1.100000 0.000000 -1.700000
v 1.100000 0.800000 1.700000
v 1.100000 0.000000 1.700000
v -1.100000 0.800000 -1.700000
v -1.100000 0.000000 -1.700000
v -1.100000 0.800000 1.700000
v -1.100000 0.000000 1.700000
vn -0.0000 1.0000 -0.0000
vn -0.0000 -0.0000 1.0000
vn -1.0000 -0.0000 -0.0000
vn -0.0000 -1.0000 -0.0000
vn 1.0000 -0.0000 -0.0000
vn -0.0000 -0.0000 -1.0000
vt 0.583347 0.362305
vt 0.583347 0.691385
vt 0.000000 0.691385
vt 0.000000 0.362305
vt 0.999932 -0.000213
vt 1.000067 0.119452
vt 0.622608 0.119879
vt 0.622473 0.000213
vt 0.583338 0.726456
vt 0.583356 0.846122
vt 0.000009 0.846208
vt -0.000009 0.726543
vt 0.000155 0.329049
vt 0.000155 -0.000031
vt 0.583502 -0.000032
vt 0.583502 0.329049
vt 0.583334 0.880271
vt 0.583360 0.999937
vt 0.000013 1.000063
vt -0.000013 0.880398
vt 0.999999 0.153831
vt 1.000001 0.273497
vt 0.622541 0.273504
vt 0.622539 0.153839
s 0
usemtl Material
f 1/1/1 5/2/1 7/3/1 3/4/1
f 4/5/2 3/6/2 7/7/2 8/8/2
f 8/9/3 7/10/3 5/11/3 6/12/3
f 6/13/4 2/14/4 4/15/4 8/16/4
f 2/17/5 1/18/5 3/19/5 4/20/5
f 6/21/6 5/22/6 1/23/6 2/24/6
